<?xml version="1.0" encoding="utf-8"?>
<!-- Generator: Adobe Illustrator 15.1.0, SVG Export Plug-In  -->
<!DOCTYPE svg PUBLIC "-//W3C//DTD SVG 1.1//EN" "http://www.w3.org/Graphics/SVG/1.1/DTD/svg11.dtd" [
	<!ENTITY ns_flows "http://ns.adobe.com/Flows/1.0/">
]>
<svg version="1.1"
	 xmlns="http://www.w3.org/2000/svg" xmlns:xlink="http://www.w3.org/1999/xlink" xmlns:a="http://ns.adobe.com/AdobeSVGViewerExtensions/3.0/"
	 x="0px" y="0px" width="100px" height="100px" viewBox="-6.301 -19.842 100 100"
	 overflow="visible" enable-background="new -6.301 -19.842 100 100" xml:space="preserve">
<defs>
</defs>
<polygon fill="#010101" points="17.687,25.021 0.006,11.562 0.052,42.557 "/>
<path fill="#010101" d="M62.438,28.571L42.463,43.879L22.437,28.635L0.064,50.886l0.018,6.759c0.005,1.947,1.688,3.523,3.759,3.513
	l77.297-0.125c2.072,0.01,3.754-1.571,3.748-3.519l-0.011-6.751L62.438,28.571z"/>
<polygon fill="#010101" points="67.176,24.947 84.863,42.426 84.822,11.438 "/>
<path fill="#010101" d="M81.044,0L3.754,0.114C1.676,0.119-0.012,1.694,0,3.645v1.507l42.458,32.316L84.811,5.026V3.513
	C84.799,1.566,83.117-0.006,81.044,0z M55.187,16.053c-0.396,1.095-0.949,2.077-1.671,2.953c-0.721,0.871-1.577,1.58-2.596,2.125
	c-1.019,0.55-2.154,0.828-3.387,0.852c-1.414-0.005-2.491-0.34-3.224-1.025c-0.588,0.271-1.199,0.509-1.833,0.724
	c-0.635,0.203-1.443,0.308-2.41,0.314c-0.623,0-1.21-0.087-1.746-0.263c-0.536-0.168-1.019-0.436-1.426-0.812
	c-0.408-0.366-0.728-0.842-0.966-1.399c-0.25-0.559-0.373-1.234-0.384-2.008c0-1.237,0.227-2.364,0.664-3.388
	c0.425-1.031,1.024-1.911,1.781-2.663c0.745-0.747,1.624-1.32,2.625-1.74c0.995-0.424,2.066-0.634,3.213-0.634
	c0.873-0.005,1.722,0.055,2.566,0.177c0.844,0.115,1.636,0.305,2.369,0.554l-1.851,9.228c0.204,0.14,0.524,0.21,0.972,0.206
	c0.71,0.004,1.35-0.197,1.909-0.594c0.564-0.404,1.036-0.925,1.408-1.553c0.367-0.637,0.664-1.339,0.861-2.116
	c0.181-0.762,0.28-1.524,0.28-2.272c0-2.079-0.687-3.673-2.043-4.777c-1.356-1.106-3.265-1.647-5.716-1.647
	c-1.914,0-3.596,0.308-5.075,0.913c-1.484,0.608-2.735,1.425-3.748,2.45c-1.019,1.023-1.792,2.211-2.322,3.544
	c-0.53,1.335-0.792,2.716-0.792,4.146c0,1.31,0.216,2.426,0.635,3.351c0.413,0.913,0.983,1.677,1.693,2.264
	c0.722,0.587,1.56,1.019,2.521,1.283c0.96,0.278,1.985,0.41,3.061,0.41c1.019-0.006,1.95-0.063,2.799-0.18
	c0.85-0.121,1.624-0.304,2.328-0.565c0.169,0.401,0.332,0.815,0.489,1.24c0.151,0.419,0.303,0.845,0.413,1.259
	c-0.343,0.164-0.774,0.317-1.251,0.455c-0.489,0.133-1.013,0.243-1.571,0.325c-0.559,0.085-1.158,0.151-1.787,0.196
	c-0.634,0.049-1.251,0.075-1.88,0.075c-1.489,0-2.897-0.197-4.236-0.594c-1.344-0.396-2.508-1.008-3.521-1.839
	c-1.007-0.822-1.804-1.852-2.386-3.1c-0.582-1.249-0.879-2.744-0.879-4.461c0-1.619,0.309-3.238,0.937-4.897
	c0.623-1.656,1.589-3.138,2.881-4.481c1.292-1.339,2.95-2.422,4.953-3.271c2.002-0.847,4.388-1.273,7.135-1.28
	c1.466,0,2.87,0.187,4.173,0.55c1.303,0.379,2.456,0.943,3.428,1.7c0.984,0.763,1.758,1.712,2.334,2.865
	c0.565,1.156,0.855,2.51,0.861,4.06C55.78,13.848,55.576,14.952,55.187,16.053z"/>
<path fill="#010101" d="M43.505,11.949c-0.652,0-1.222,0.134-1.723,0.41c-0.512,0.276-0.931,0.644-1.286,1.094
	c-0.361,0.458-0.622,0.965-0.809,1.572c-0.186,0.6-0.279,1.219-0.285,1.865c0.006,0.823,0.198,1.424,0.588,1.792
	c0.378,0.366,0.884,0.547,1.507,0.542c0.396,0.005,0.739-0.023,1.03-0.076c0.279-0.052,0.588-0.131,0.925-0.229l1.263-6.842
	c-0.215-0.052-0.419-0.087-0.611-0.105C43.924,11.951,43.715,11.949,43.505,11.949z"/>
</svg>
