<?xml version="1.0" encoding="utf-8"?>
<!-- Generator: Adobe Illustrator 15.1.0, SVG Export Plug-In  -->
<!DOCTYPE svg PUBLIC "-//W3C//DTD SVG 1.1//EN" "http://www.w3.org/Graphics/SVG/1.1/DTD/svg11.dtd" [
	<!ENTITY ns_flows "http://ns.adobe.com/Flows/1.0/">
]>
<svg version="1.1"
	 xmlns="http://www.w3.org/2000/svg" xmlns:xlink="http://www.w3.org/1999/xlink" xmlns:a="http://ns.adobe.com/AdobeSVGViewerExtensions/3.0/"
	 x="0px" y="0px" width="60px" height="60px" viewBox="-12.476 -5.483 60 60"
	 overflow="visible" enable-background="new -12.476 -5.483 60 60" xml:space="preserve">
<defs>
</defs>
<path fill="#414042" d="M12.931,35.174V18.121L7.802,20.4c0,0-1.306,2.93-1.07,7.182c0.174,3.319,2.029,7.289,3.456,8.959
	L12.931,35.174 M27.955,0.054c1.266,0.111,3.254,0.73,4.75,2.049c1.588,1.544,1.955,3.883,1.394,6.015
	c-0.496,1.897-1.05,2.886-2.991,4.196c-1.953,1.318-4.324,1.211-4.324,1.211v8.22l4.008,3.236l-4.008,3.222v11.202
	c0,0,4.014-2.297,6.5-7.439c0,0,0.101-0.283,0.331-0.81c0.229,1.376,0.101,4.165-1.46,7.749c-1.171,2.694-3.311,5.286-5.987,6.768
	c-4.75,2.636-8.315,2.88-12.127,2.093c-4.469-0.92-8.533-3.435-11.298-7.817c-1.946-3.075-2.816-6.666-2.737-10.531
	c0.154-7.572,5.797-14.109,12.305-16.549c0.79-0.295,1.103-0.492,2.229-0.599c-0.518,0.357-1.123,0.815-1.853,1.292
	c-2.096,1.383-3.894,4.124-4.663,6.23l12.638-5.636v17.67l-10.189,5.102c1.163,1.613,4.69,4.048,7.707,4.391
	c5.135,0.565,8.137-1.675,8.137-1.675V28.202l-3.974-3.222l3.974-3.227v-8.229c-2.16-0.252-4.795-0.972-6.342-1.35
	c-2.262-0.559-9.814-2.681-11.003-2.86c-1.186-0.176-2.656-0.121-3.54,0.675c-0.885,0.796-1.437,2.2-1.056,3.467
	C4.592,14.174,5.079,14.59,5.456,15c0,0-0.435-0.038-1.223-0.514c-1.425-0.855-2.513-2.529-2.648-4.592
	C1.417,7.191,2.534,4.749,4.762,3.116C6.7,1.869,8.9,1.068,11.45,1.435c3.717,0.531,8.725,2.628,13.182,3.7
	c1.723,0.416,3.057,0.56,4.268-0.15c0.572-0.409,1.562-1.462,0.752-2.857c-0.953-1.629-2.765-1.6-4.312-1.889
	C26.664-0.037,26.962-0.037,27.955,0.054z"/>
</svg>
